<?xml version="1.0" encoding="UTF-8" standalone="no"?><!DOCTYPE svg PUBLIC "-//W3C//DTD SVG 1.1//EN" "http://www.w3.org/Graphics/SVG/1.1/DTD/svg11.dtd"><svg width="100%" height="100%" viewBox="0 0 393 143" version="1.1" xmlns="http://www.w3.org/2000/svg" xmlns:xlink="http://www.w3.org/1999/xlink" xml:space="preserve" xmlns:serif="http://www.serif.com/" style="fill-rule:evenodd;clip-rule:evenodd;stroke-linejoin:round;stroke-miterlimit:2;"><path d="M115.82,98.047c0,11.979 -3.743,21.907 -11.23,29.785c-8.529,9.05 -23.503,13.574 -44.922,13.574c-1.628,0 -3.971,-0.032 -7.031,-0.097l-6.934,-0c-24.023,-0 -38.314,-0.489 -42.871,-1.465c-1.888,-0.391 -2.832,-1.4 -2.832,-3.028c-0,-6.966 0.407,-17.513 1.221,-31.64c0.814,-14.128 1.22,-24.707 1.22,-31.739c0,-7.552 -0.39,-21.744 -1.171,-42.578c-0.196,-5.338 -0.554,-13.346 -1.075,-24.023l-0.097,-1.367c-0.065,-1.237 0.96,-1.986 3.076,-2.246c2.116,-0.261 9.652,-0.391 22.607,-0.391c20.768,0 32.91,0.065 36.426,0.195c16.016,0.586 27.832,3.19 35.449,7.813c10.091,6.185 15.137,16.634 15.137,31.347c-0,3.842 -1.172,7.911 -3.516,12.208c-1.692,3.059 -3.906,6.119 -6.64,9.179c-2.409,2.669 -3.614,3.906 -3.614,3.711c0,0.456 0.847,1.172 2.539,2.149c4.558,2.604 8.139,6.738 10.743,12.402c2.343,5.078 3.515,10.482 3.515,16.211Zm-41.992,-54.981c0,-5.599 -2.799,-9.309 -8.398,-11.132c-3.125,-0.977 -8.269,-1.465 -15.43,-1.465c-7.031,-0 -10.547,0.521 -10.547,1.562c0,1.237 -0.114,3.109 -0.342,5.615c-0.228,2.507 -0.341,4.379 -0.341,5.616c-0,6.51 0.553,10.156 1.66,10.937c0.716,0.586 4.85,0.879 12.402,0.879c13.997,0 20.996,-4.004 20.996,-12.012Zm2.93,54.59c-0,-5.859 -2.442,-9.83 -7.324,-11.914c-3.125,-1.302 -8.204,-1.953 -15.235,-1.953c-8.398,0 -12.956,0.309 -13.672,0.928c-0.716,0.618 -1.074,4.606 -1.074,11.963c0,7.682 0.423,11.93 1.27,12.744c0.846,0.814 5.534,1.221 14.062,1.221c7.031,-0 11.979,-0.554 14.844,-1.661c4.753,-1.888 7.129,-5.664 7.129,-11.328Z" style="fill:url(#_Linear1);fill-rule:nonzero;"/><path d="M244.824,92.285c0,16.602 -1.985,27.93 -5.957,33.985c-7.291,11.067 -25.488,16.601 -54.59,16.601c-13.151,0 -23.274,-1.009 -30.371,-3.027c-11.328,-3.255 -18.685,-9.473 -22.07,-18.653c-1.693,-4.492 -2.539,-12.5 -2.539,-24.023c-0,-2.669 0.098,-6.641 0.293,-11.914c0.195,-5.274 0.293,-9.212 0.293,-11.817c-0,-7.552 -0.358,-18.88 -1.074,-33.984c-0.717,-15.104 -1.075,-26.4 -1.075,-33.887c0,-1.562 0.684,-2.343 2.051,-2.343c3.972,-0 9.977,0.162 18.018,0.488c8.04,0.325 14.046,0.488 18.017,0.488c1.628,0 2.442,0.716 2.442,2.149c-0,8.593 -0.277,21.468 -0.83,38.623c-0.554,17.155 -0.83,30.029 -0.83,38.623c-0,10.221 1.074,17.122 3.222,20.703c2.865,4.883 8.854,7.324 17.969,7.324c13.346,0 20.019,-6.478 20.019,-19.434c0,-9.44 -0.227,-23.6 -0.683,-42.48c-0.456,-18.88 -0.684,-33.04 -0.684,-42.48c0,-2.019 0.814,-3.028 2.442,-3.028c3.841,0 9.635,-0.163 17.383,-0.488c7.747,-0.326 13.541,-0.488 17.382,-0.488c1.888,-0 2.832,0.781 2.832,2.343c0,7.487 -0.309,18.783 -0.927,33.887c-0.619,15.104 -0.928,26.432 -0.928,33.984c-0,2.084 0.195,16.765 0.195,18.848Z" style="fill:url(#_Linear2);fill-rule:nonzero;"/><path d="M392.578,137.109c0.13,1.758 -0.781,2.637 -2.734,2.637c-1.237,0 -4.802,-0.716 -10.694,-2.148c-5.892,-1.433 -9.521,-2.409 -10.888,-2.93c-13.607,5.339 -26.66,8.008 -39.16,8.008c-20.118,-0 -36.622,-6.706 -49.512,-20.117c-12.761,-13.217 -19.141,-29.916 -19.141,-50.098c0,-20.638 6.185,-37.76 18.555,-51.367c12.76,-14.063 29.329,-21.094 49.707,-21.094c9.896,-0 19.206,1.888 27.93,5.664c9.44,4.167 16.862,10.026 22.265,17.578c1.107,1.563 1.66,2.669 1.66,3.32c0,2.084 -2.913,6.755 -8.74,14.014c-5.827,7.259 -9.586,10.889 -11.279,10.889c-0.391,-0 -1.888,-1.335 -4.492,-4.004c-3.19,-3.19 -6.446,-5.664 -9.766,-7.422c-4.948,-2.669 -10.417,-4.004 -16.406,-4.004c-9.766,0 -17.513,3.646 -23.242,10.938c-5.339,6.705 -8.008,15.071 -8.008,25.097c-0,10.612 2.767,19.011 8.301,25.196c5.729,6.38 13.834,9.57 24.316,9.57c6.641,-0 14.063,-1.66 22.266,-4.981c-0.196,-2.148 -0.782,-7.617 -1.758,-16.406c-0.847,-6.771 -1.27,-12.239 -1.27,-16.406c0,-1.237 0.423,-1.986 1.27,-2.246c0.325,-0.13 0.846,-0.195 1.562,-0.195c1.888,-0 4.737,0.179 8.545,0.537c3.809,0.358 6.69,0.537 8.643,0.537c2.083,-0 5.208,-0.147 9.375,-0.44c4.166,-0.293 7.291,-0.439 9.375,-0.439c1.627,-0 2.441,1.074 2.441,3.223c0,3.125 -0.179,7.845 -0.537,14.16c-0.358,6.315 -0.537,11.035 -0.537,14.16c-0,8.398 0.618,20.963 1.855,37.695l0.098,1.074Z" style="fill:url(#_Linear3);fill-rule:nonzero;"/><defs><linearGradient id="_Linear1" x1="0" y1="0" x2="1" y2="0" gradientUnits="userSpaceOnUse" gradientTransform="matrix(1.37216e-14,-224.091,224.091,1.37216e-14,194.336,180.884)"><stop offset="0" style="stop-color:#fff;stop-opacity:1"/><stop offset="0.45" style="stop-color:#c6debf;stop-opacity:1"/><stop offset="1" style="stop-color:#3b8e23;stop-opacity:1"/></linearGradient><linearGradient id="_Linear2" x1="0" y1="0" x2="1" y2="0" gradientUnits="userSpaceOnUse" gradientTransform="matrix(1.37216e-14,-224.091,224.091,1.37216e-14,194.336,180.884)"><stop offset="0" style="stop-color:#fff;stop-opacity:1"/><stop offset="0.45" style="stop-color:#c6debf;stop-opacity:1"/><stop offset="1" style="stop-color:#3b8e23;stop-opacity:1"/></linearGradient><linearGradient id="_Linear3" x1="0" y1="0" x2="1" y2="0" gradientUnits="userSpaceOnUse" gradientTransform="matrix(1.37216e-14,-224.091,224.091,1.37216e-14,194.336,180.884)"><stop offset="0" style="stop-color:#fff;stop-opacity:1"/><stop offset="0.45" style="stop-color:#c6debf;stop-opacity:1"/><stop offset="1" style="stop-color:#3b8e23;stop-opacity:1"/></linearGradient></defs></svg>